<svg xmlns="http://www.w3.org/2000/svg" xmlns:xlink="http://www.w3.org/1999/xlink" width="500" zoomAndPan="magnify" viewBox="0 0 375 374.999991" height="500" preserveAspectRatio="xMidYMid meet" version="1.0"><defs><clipPath id="id1"><path d="M 0 3.75 L 375 3.75 L 375 370 L 0 370 Z M 0 3.75 " clip-rule="nonzero"/></clipPath></defs><g clip-path="url(#id1)"><path fill="#ffffff" d="M 187.5 3.882812 C 83.960938 3.882812 0 87.828125 0 191.382812 C 0 274.234375 53.722656 344.515625 128.226562 369.300781 C 137.597656 371.042969 141.035156 365.230469 141.035156 360.277344 C 141.035156 355.808594 140.863281 341.042969 140.78125 325.371094 C 88.617188 336.722656 77.613281 303.25 77.613281 303.25 C 69.082031 281.570312 56.792969 275.816406 56.792969 275.816406 C 39.78125 264.183594 58.074219 264.417969 58.074219 264.417969 C 76.902344 265.738281 86.816406 283.738281 86.816406 283.738281 C 103.539062 312.40625 130.679688 304.117188 141.378906 299.324219 C 143.0625 287.210938 147.917969 278.933594 153.28125 274.246094 C 111.636719 269.515625 67.859375 253.433594 67.859375 181.597656 C 67.859375 161.117188 75.183594 144.390625 87.175781 131.261719 C 85.230469 126.539062 78.8125 107.46875 88.992188 81.640625 C 88.992188 81.640625 104.738281 76.601562 140.570312 100.863281 C 155.523438 96.707031 171.5625 94.625 187.5 94.550781 C 203.4375 94.625 219.492188 96.707031 234.476562 100.863281 C 270.261719 76.601562 285.980469 81.640625 285.980469 81.640625 C 296.191406 107.46875 289.773438 126.539062 287.828125 131.261719 C 299.839844 144.390625 307.117188 161.117188 307.117188 181.597656 C 307.117188 253.609375 263.261719 269.457031 221.5 274.101562 C 228.222656 279.917969 234.230469 291.328125 234.230469 308.832031 C 234.230469 333.910156 234.007812 354.109375 234.007812 360.277344 C 234.007812 365.273438 237.378906 371.117188 246.886719 369.273438 C 321.34375 344.457031 375 274.203125 375 191.382812 C 375 87.828125 291.050781 3.882812 187.5 3.882812 Z M 70.226562 270.980469 C 69.8125 271.917969 68.347656 272.195312 67.011719 271.550781 C 65.652344 270.9375 64.886719 269.675781 65.328125 268.738281 C 65.730469 267.773438 67.203125 267.507812 68.558594 268.152344 C 69.921875 268.769531 70.699219 270.042969 70.226562 270.980469 Z M 79.449219 279.214844 C 78.554688 280.035156 76.804688 279.652344 75.621094 278.347656 C 74.394531 277.03125 74.164062 275.289062 75.070312 274.453125 C 75.992188 273.617188 77.6875 274.011719 78.917969 275.316406 C 80.144531 276.636719 80.382812 278.378906 79.449219 279.214844 Z M 85.777344 289.746094 C 84.628906 290.535156 82.75 289.789062 81.585938 288.121094 C 80.4375 286.449219 80.4375 284.457031 81.613281 283.652344 C 82.777344 282.847656 84.625 283.578125 85.804688 285.234375 C 86.949219 286.917969 86.949219 288.925781 85.773438 289.746094 Z M 96.476562 301.933594 C 95.449219 303.0625 93.257812 302.769531 91.65625 301.214844 C 90.015625 299.707031 89.5625 297.554688 90.59375 296.425781 C 91.632812 295.296875 93.835938 295.605469 95.449219 297.144531 C 97.074219 298.652344 97.574219 300.820312 96.476562 301.933594 Z M 110.308594 306.050781 C 109.851562 307.515625 107.746094 308.1875 105.621094 307.558594 C 103.5 306.929688 102.113281 305.199219 102.539062 303.71875 C 102.980469 302.242188 105.101562 301.539062 107.238281 302.210938 C 109.355469 302.855469 110.75 304.554688 110.308594 306.050781 Z M 126.046875 307.792969 C 126.097656 309.34375 124.296875 310.621094 122.070312 310.648438 C 119.824219 310.707031 118.011719 309.449219 117.988281 307.925781 C 117.988281 306.371094 119.75 305.097656 121.992188 305.066406 C 124.21875 305.023438 126.046875 306.253906 126.046875 307.792969 Z M 141.507812 307.207031 C 141.773438 308.714844 140.226562 310.269531 138.011719 310.679688 C 135.835938 311.074219 133.820312 310.136719 133.542969 308.640625 C 133.273438 307.105469 134.851562 305.550781 137.023438 305.15625 C 139.242188 304.761719 141.222656 305.667969 141.507812 307.207031 Z M 141.507812 307.207031 " fill-opacity="1" fill-rule="nonzero"/></g></svg>